<svg width="31" height="31" viewBox="0 0 31 31" fill="none" xmlns="http://www.w3.org/2000/svg">
<g clip-path="url(#clip0_557_118)">
<path d="M15.5001 30.9999C17.5369 31.0049 19.5548 30.6074 21.4376 29.8302C23.3204 29.0531 25.0311 27.9115 26.4714 26.4712C27.9117 25.0309 29.0532 23.3202 29.8304 21.4374C30.6075 19.5546 31.0051 17.5368 31.0001 15.4999C31.0045 13.4632 30.6066 11.4456 29.8292 9.56308C29.0519 7.68053 27.9103 5.97006 26.4701 4.52987C25.0299 3.08968 23.3195 1.94813 21.4369 1.17075C19.5543 0.393376 17.5368 -0.0045153 15.5001 -7.55345e-05C13.4632 -0.0050727 11.4454 0.392437 9.56256 1.16961C7.67976 1.94679 5.96906 3.08832 4.52876 4.52863C3.08846 5.96893 1.94693 7.67962 1.16975 9.56243C0.39257 11.4452 -0.00493968 13.463 5.74831e-05 15.4999C-0.00549763 17.537 0.39163 19.555 1.16861 21.4381C1.94559 23.3211 3.0871 25.0321 4.52752 26.4725C5.96793 27.9129 7.67884 29.0544 9.5619 29.8314C11.445 30.6084 13.463 31.0055 15.5001 30.9999Z" fill="#2775CA"/>
<path d="M19.7601 17.9542C19.7601 15.6936 18.4046 14.9191 15.6936 14.5865C13.7529 14.3297 13.3656 13.8119 13.3656 12.9026C13.3656 11.9933 14.0139 11.4208 15.3063 11.4208C16.4681 11.4208 17.1122 11.8081 17.4364 12.7763C17.4693 12.8696 17.5303 12.9504 17.6109 13.0076C17.6916 13.0649 17.7879 13.0958 17.8868 13.0963H18.9224C18.983 13.1013 19.044 13.0931 19.1011 13.0723C19.1583 13.0515 19.2103 13.0186 19.2535 12.9758C19.2967 12.933 19.3301 12.8813 19.3514 12.8244C19.3728 12.7674 19.3815 12.7065 19.377 12.6458V12.5827C19.2522 11.8823 18.8992 11.2428 18.3731 10.7638C17.847 10.2849 17.1772 9.99343 16.4681 9.93481V8.38144C16.4681 8.12465 16.2745 7.931 15.9546 7.86786H14.9821C14.7253 7.86786 14.5317 8.0615 14.4686 8.38144V9.86745C12.5321 10.1285 11.3029 11.4166 11.3029 13.0331C11.3029 15.1632 12.5953 16.0051 15.3063 16.3251C17.1164 16.6492 17.6974 17.0365 17.6974 18.0721C17.6974 19.1077 16.7923 19.8149 15.5631 19.8149C13.8792 19.8149 13.3067 19.1035 13.113 18.131C13.0922 18.0246 13.0359 17.9284 12.9533 17.858C12.8707 17.7877 12.7668 17.7474 12.6584 17.7437H11.5681C11.5074 17.7393 11.4465 17.748 11.3896 17.7693C11.3326 17.7907 11.2809 17.8241 11.2381 17.8673C11.1953 17.9105 11.1624 17.9625 11.1416 18.0196C11.1208 18.0768 11.1126 18.1378 11.1177 18.1984V18.2615C11.3744 19.878 12.41 21.0399 14.5401 21.3641V22.9132C14.5401 23.17 14.7338 23.3636 15.0537 23.4268H16.0261C16.2829 23.4268 16.4766 23.2331 16.5397 22.9132V21.3641C18.4762 21.0399 19.7685 19.6802 19.7685 17.9374L19.7601 17.9542Z" fill="white"/>
<path d="M12.2038 24.736C11.0085 24.3041 9.91069 23.6396 8.97371 22.781C8.03673 21.9223 7.27921 20.8864 6.7449 19.7333C6.2106 18.5801 5.91011 17.3325 5.86081 16.0626C5.8115 14.7926 6.01435 13.5254 6.45763 12.3343C6.93375 11.0128 7.69561 9.81262 8.68886 8.81936C9.68212 7.82611 10.8823 7.06425 12.2038 6.58814C12.3277 6.53483 12.4317 6.44399 12.5012 6.32844C12.5706 6.21289 12.6021 6.07844 12.5911 5.94406V5.03898C12.6008 4.92029 12.5668 4.80216 12.4955 4.7068C12.4241 4.61144 12.3204 4.54543 12.2038 4.52119C12.1129 4.51115 12.0214 4.53514 11.947 4.58854C10.4924 5.04968 9.14303 5.79346 7.97645 6.77724C6.80987 7.76101 5.84898 8.96542 5.1489 10.3214C4.44883 11.6773 4.02334 13.1582 3.89684 14.6789C3.77034 16.1997 3.94531 17.7305 4.41173 19.1835C4.97669 20.9581 5.95998 22.5709 7.2787 23.8859C8.59743 25.201 10.213 26.1798 11.9891 26.7398C12.0427 26.7712 12.1029 26.7894 12.1648 26.7929C12.2267 26.7964 12.2886 26.7852 12.3453 26.7601C12.4021 26.735 12.452 26.6968 12.4911 26.6487C12.5302 26.6005 12.5572 26.5437 12.5701 26.483C12.6332 26.4157 12.6332 26.3525 12.6332 26.222V25.3212C12.6098 25.1978 12.5591 25.0812 12.4848 24.9799C12.4105 24.8787 12.3145 24.7954 12.2038 24.736ZM19.0488 4.58433C18.9948 4.55392 18.9344 4.53662 18.8725 4.53381C18.8106 4.531 18.7489 4.54277 18.6924 4.56816C18.6359 4.59355 18.5861 4.63186 18.5471 4.68001C18.5081 4.72815 18.4809 4.78478 18.4678 4.84533C18.4047 4.90848 18.4047 4.97162 18.4047 5.10212V6.0072C18.4162 6.13747 18.457 6.26345 18.524 6.37571C18.5911 6.48798 18.6827 6.58363 18.792 6.65549C19.9871 7.08694 21.0849 7.75099 22.0218 8.60927C22.9587 9.46755 23.7163 10.503 24.2506 11.6558C24.7849 12.8087 25.0854 14.0559 25.1348 15.3256C25.1842 16.5953 24.9814 17.8621 24.5382 19.053C24.0621 20.375 23.3003 21.5757 22.307 22.5697C21.3138 23.5636 20.1136 24.3263 18.792 24.8034C18.6677 24.8562 18.5634 24.9469 18.4938 25.0626C18.4242 25.1782 18.393 25.313 18.4047 25.4475V26.3525C18.3951 26.4707 18.4293 26.5883 18.5007 26.6829C18.5721 26.7776 18.6757 26.8428 18.792 26.8661C18.8823 26.8755 18.9731 26.8532 19.0488 26.803C20.5052 26.3431 21.8564 25.6001 23.0251 24.6168C24.1937 23.6334 25.1566 22.429 25.8587 21.0726C26.5607 19.7162 26.9881 18.2346 27.1161 16.7126C27.2442 15.1907 27.0706 13.6585 26.6051 12.2038C26.044 10.4235 25.0654 8.80309 23.751 7.47768C22.4366 6.15227 20.8244 5.16025 19.0488 4.58433Z" fill="white"/>
</g>
<defs>
<clipPath id="clip0_557_118">
<rect width="31" height="31" fill="white"/>
</clipPath>
</defs>
</svg>
