<svg width="32" height="32" viewBox="0 0 32 32" fill="none" xmlns="http://www.w3.org/2000/svg">
<g clip-path="url(#clip0_557_324)">
<path d="M31.522 19.8721C31.0146 21.9108 30.1105 23.8296 28.8612 25.5188C27.6119 27.208 26.042 28.6345 24.2411 29.7169C22.4402 30.7992 20.4437 31.5161 18.3656 31.8266C16.2875 32.1371 14.1685 32.0352 12.1299 31.5266C8.01392 30.4991 4.47445 27.8795 2.28953 24.2436C0.104612 20.6077 -0.546941 16.2532 0.478098 12.1371C0.985943 10.0987 1.8904 8.18023 3.13982 6.49131C4.38924 4.80239 5.95914 3.37609 7.75989 2.29385C9.56065 1.21161 11.557 0.494628 13.6349 0.18385C15.7128 -0.126928 17.8315 -0.0254178 19.8702 0.482587C21.909 0.990809 23.8277 1.89563 25.5167 3.14537C27.2057 4.39512 28.6319 5.9653 29.7139 7.76624C30.7959 9.56719 31.5125 11.5636 31.8227 13.6415C32.133 15.7194 32.0308 17.838 31.522 19.8764V19.8721Z" fill="#F7931A"/>
<path d="M23.0556 13.7099C23.3772 11.585 21.7518 10.4378 19.5353 9.673L20.2567 6.79196L18.5183 6.35741L17.8186 9.16458C17.3579 9.0516 16.8842 8.94296 16.4105 8.83432L17.1145 6.00977L15.3761 5.57523L14.6547 8.45627C14.2722 8.36936 13.8984 8.28679 13.5334 8.19554L11.1083 7.59152L10.6433 9.46442C10.6433 9.46442 11.9471 9.76425 11.9166 9.78164C12.1506 9.82021 12.3611 9.94628 12.5056 10.1343C12.65 10.3223 12.7176 10.5582 12.6946 10.7941L11.8732 14.0923L10.7215 18.6942C10.6981 18.776 10.6586 18.8524 10.6053 18.9188C10.5519 18.9852 10.4859 19.0402 10.411 19.0807C10.3361 19.1212 10.2538 19.1463 10.1691 19.1545C10.0843 19.1628 9.99877 19.154 9.91746 19.1287C9.91746 19.1548 8.63972 18.8115 8.63972 18.8115L7.77051 20.8191L10.0565 21.3884L11.3082 21.7143L10.5781 24.6301L12.3165 25.0646L13.0379 22.1792C13.516 22.3096 13.981 22.4269 14.4374 22.5399L13.7203 25.4123L15.4587 25.8468L16.1888 22.9354C19.1832 23.5003 21.4345 23.2743 22.3819 20.5671C23.1425 18.3943 22.3428 17.1298 20.7652 16.3085C21.9126 16.0435 22.7774 15.2873 23.0078 13.7273L23.0556 13.7099ZM19.0442 19.359C18.5009 21.5318 14.8328 20.3585 13.642 20.063L14.6069 16.1999C15.7933 16.4954 19.6092 17.069 19.0442 19.359ZM19.5874 13.7099C19.092 15.6958 16.0367 14.6877 15.0458 14.44L15.915 10.9332C16.9103 11.1591 20.1046 11.6198 19.5874 13.7099Z" fill="white"/>
</g>
<defs>
<clipPath id="clip0_557_324">
<rect width="32" height="32" fill="white"/>
</clipPath>
</defs>
</svg>
