<svg width="32" height="32" viewBox="0 0 32 32" fill="none" xmlns="http://www.w3.org/2000/svg">
<g clip-path="url(#clip0_557_330)">
<path d="M31.5876 19.6216C33.5859 11.014 28.228 2.41617 19.6204 0.417863C11.0127 -1.58045 2.41491 3.77747 0.416601 12.3851C-1.58171 20.9928 3.77621 29.5906 12.3839 31.5889C20.9915 33.5872 29.5893 28.2293 31.5876 19.6216Z" fill="#627EEA"/>
<path d="M16.4995 3.99783V12.8713L23.9954 16.2216L16.4995 3.99783Z" fill="white" fill-opacity="0.6"/>
<path d="M16.4998 3.99783L9.00391 16.2216L16.5042 12.8713L16.4998 3.99783Z" fill="white"/>
<path d="M16.4995 21.9663V27.9935L23.9998 17.6208L16.4995 21.9663Z" fill="white" fill-opacity="0.6"/>
<path d="M16.4998 27.9935V21.9663L9.00391 17.6208L16.4998 27.9935Z" fill="white"/>
<path d="M16.4995 20.5714L23.9954 16.226L16.4995 12.8756V20.5714Z" fill="white" fill-opacity="0.2"/>
<path d="M9.00391 16.2216L16.5042 20.5671V12.8713L9.00391 16.2216Z" fill="white" fill-opacity="0.6"/>
</g>
<defs>
<clipPath id="clip0_557_330">
<rect width="32" height="32" fill="white"/>
</clipPath>
</defs>
</svg>
