<svg width="32" height="32" viewBox="0 0 32 32" fill="none" xmlns="http://www.w3.org/2000/svg">
<g clip-path="url(#clip0_557_327)">
<path d="M16 5.90471e-07C20.2431 0.00115251 24.3121 1.68723 27.3124 4.68757C30.3128 7.6879 31.9988 11.7569 32 16C31.9988 20.2431 30.3128 24.3121 27.3124 27.3124C24.3121 30.3128 20.2431 31.9989 16 32C13.8987 32.0006 11.8179 31.5871 9.87639 30.7832C7.93492 29.9794 6.17087 28.8008 4.68502 27.315C3.19917 25.8291 2.02064 24.0651 1.21677 22.1236C0.412892 20.1821 -0.00057034 18.1013 5.90471e-07 16C-0.00057034 13.8987 0.412892 11.8179 1.21677 9.87639C2.02064 7.93492 3.19917 6.17087 4.68502 4.68502C6.17087 3.19917 7.93492 2.02064 9.87639 1.21677C11.8179 0.412892 13.8987 -0.00057034 16 5.90471e-07Z" fill="#53AE94"/>
<path d="M17.973 13.8664V11.4894H23.4179V7.86093H8.59553V11.4894H14.0404V13.8664C9.61671 14.0706 6.28809 14.944 6.28809 15.9956C6.28809 17.0472 9.61671 17.9207 14.0404 18.1249V25.7512H17.9774V18.1249C22.3924 17.9207 25.7123 17.0472 25.7123 15.9956C25.7123 14.944 22.3924 14.0706 17.9774 13.8707M17.9774 17.4774C17.8644 17.4774 17.2951 17.5166 16.0219 17.5166C15.0094 17.5166 14.2837 17.4905 14.0404 17.4774C10.1295 17.3036 7.21367 16.6084 7.21367 15.8088C7.21367 15.0092 10.1338 14.3183 14.0404 14.1445V16.7996C14.2968 16.7996 15.0312 16.8604 16.0393 16.8604C17.2517 16.8604 17.8644 16.8126 17.9774 16.7996V14.1445C21.8883 14.3183 24.7867 15.0136 24.7867 15.8088C24.7867 16.604 21.8753 17.3036 17.9774 17.4774Z" fill="white"/>
</g>
<defs>
<clipPath id="clip0_557_327">
<rect width="32" height="32" fill="white"/>
</clipPath>
</defs>
</svg>
